<svg width="28" height="20" viewBox="0 0 28 20" fill="none" xmlns="http://www.w3.org/2000/svg">
<rect x="0.25" y="0.25" width="27.5" height="19.5" rx="1.75" fill="white" stroke="#F5F5F5" stroke-width="0.5"/>
<mask id="mask0" mask-type="alpha" maskUnits="userSpaceOnUse" x="0" y="0" width="28" height="20">
<rect x="0.25" y="0.25" width="27.5" height="19.5" rx="1.75" fill="white" stroke="white" stroke-width="0.5"/>
</mask>
<g mask="url(#mask0)">
<path fill-rule="evenodd" clip-rule="evenodd" d="M14 14.6666C16.5773 14.6666 18.6667 12.5773 18.6667 9.99998C18.6667 7.42265 16.5773 5.33331 14 5.33331C11.4227 5.33331 9.33334 7.42265 9.33334 9.99998C9.33334 12.5773 11.4227 14.6666 14 14.6666Z" fill="#E01B41"/>
<mask id="mask1" mask-type="alpha" maskUnits="userSpaceOnUse" x="9" y="5" width="10" height="10">
<path fill-rule="evenodd" clip-rule="evenodd" d="M14 14.6666C16.5773 14.6666 18.6667 12.5773 18.6667 9.99998C18.6667 7.42265 16.5773 5.33331 14 5.33331C11.4227 5.33331 9.33334 7.42265 9.33334 9.99998C9.33334 12.5773 11.4227 14.6666 14 14.6666Z" fill="white"/>
</mask>
<g mask="url(#mask1)">
<path fill-rule="evenodd" clip-rule="evenodd" d="M9.33335 10.6666C10.6667 11.9166 12.6667 12.6666 14 10.6666C15.3333 8.66663 18 8.66663 18.6667 10.6666C19.3333 12.6666 18.6667 14.6666 18.6667 14.6666H9.33335C9.33335 14.6666 8.00001 9.41663 9.33335 10.6666Z" fill="#0E4B9C"/>
</g>
<path opacity="0.75" fill-rule="evenodd" clip-rule="evenodd" d="M6.17309 3.55665C6.26513 3.39722 6.469 3.3426 6.62843 3.43464L7.20578 3.76798C7.36521 3.86003 7.41983 4.06389 7.32779 4.22332L5.66112 7.11007C5.56907 7.2695 5.36521 7.32413 5.20578 7.23208L4.62843 6.89875C4.469 6.8067 4.41437 6.60284 4.50642 6.4434L6.17309 3.55665ZM20.7942 3.76798C20.6348 3.86003 20.5802 4.06389 20.6722 4.22332L22.3389 7.11007C22.4309 7.2695 22.6348 7.32413 22.7942 7.23208L23.3716 6.89875C23.531 6.8067 23.5856 6.60284 23.4936 6.4434L21.8269 3.55665C21.7349 3.39722 21.531 3.3426 21.3716 3.43464L20.7942 3.76798ZM19.0622 4.76798C18.9028 4.86003 18.8481 5.06389 18.9402 5.22332L20.6068 8.11007C20.6989 8.2695 20.9028 8.32413 21.0622 8.23208L21.6395 7.89875C21.799 7.8067 21.8536 7.60284 21.7615 7.4434L20.0949 4.55665C20.0028 4.39722 19.799 4.3426 19.6395 4.43464L19.0622 4.76798ZM4.50642 13.5567C4.41437 13.3972 4.469 13.1934 4.62843 13.1013L5.20578 12.768C5.36521 12.6759 5.56907 12.7306 5.66112 12.89L7.32779 15.7767C7.41983 15.9362 7.36521 16.14 7.20578 16.2321L6.62843 16.5654C6.469 16.6575 6.26513 16.6028 6.17309 16.4434L4.50642 13.5567ZM6.36048 12.1013C6.20105 12.1934 6.14642 12.3972 6.23847 12.5567L7.90514 15.4434C7.99718 15.6028 8.20105 15.6575 8.36048 15.5654L8.93783 15.2321C9.09726 15.14 9.15189 14.9362 9.05984 14.7767L7.39317 11.89C7.30112 11.7306 7.09726 11.6759 6.93783 11.768L6.36048 12.1013ZM20.6068 11.89C20.6989 11.7306 20.9028 11.6759 21.0622 11.768L21.6395 12.1013C21.799 12.1934 21.8536 12.3972 21.7615 12.5567L20.0949 15.4434C20.0028 15.6028 19.799 15.6575 19.6395 15.5654L19.0622 15.2321C18.9028 15.14 18.8481 14.9362 18.9402 14.7767L20.6068 11.89ZM22.7942 12.768C22.6348 12.6759 22.4309 12.7306 22.3389 12.89L20.6722 15.7767C20.5802 15.9362 20.6348 16.14 20.7942 16.2321L21.3716 16.5654C21.531 16.6575 21.7349 16.6028 21.8269 16.4434L23.4936 13.5567C23.5856 13.3972 23.531 13.1934 23.3716 13.1013L22.7942 12.768ZM8.36048 4.43464C8.20105 4.3426 7.99718 4.39722 7.90514 4.55665L6.23847 7.4434C6.14642 7.60284 6.20105 7.8067 6.36048 7.89875L6.93783 8.23208C7.09726 8.32413 7.30112 8.2695 7.39317 8.11007L9.05984 5.22332C9.15189 5.06389 9.09726 4.86003 8.93783 4.76798L8.36048 4.43464Z" fill="#262626"/>
</g>
</svg>
