<?xml version="1.0" standalone="no"?>
<!DOCTYPE svg PUBLIC "-//W3C//DTD SVG 20010904//EN"
 "http://www.w3.org/TR/2001/REC-SVG-20010904/DTD/svg10.dtd">
<svg version="1.0" xmlns="http://www.w3.org/2000/svg"
 width="500.000000pt" height="500.000000pt" viewBox="0 0 500.000000 500.000000"
 preserveAspectRatio="xMidYMid meet">
<metadata>
Created by potrace 1.11, written by Peter Selinger 2001-2013
</metadata>
<g transform="translate(0.000000,500.000000) scale(0.100000,-0.100000)"
fill="#2165f5" stroke="none">
<path d="M2319 4745 c-3 -2 -38 -7 -79 -11 -41 -3 -78 -8 -81 -10 -3 -1 -28
-6 -55 -9 -76 -11 -258 -59 -369 -100 -242 -87 -514 -245 -699 -406 -47 -40
-212 -205 -241 -240 -102 -123 -265 -359 -265 -383 0 -5 -6 -17 -13 -25 -21
-26 -103 -211 -140 -317 -40 -114 -75 -248 -92 -349 -3 -16 -7 -43 -10 -60
-27 -161 -27 -500 0 -675 57 -368 223 -752 448 -1040 90 -115 223 -253 322
-335 33 -28 62 -52 65 -55 14 -15 186 -134 225 -156 11 -6 56 -31 100 -56 116
-64 354 -161 451 -183 10 -2 44 -11 74 -19 66 -18 210 -44 300 -54 81 -9 393
-9 480 0 505 53 1001 293 1365 663 61 62 97 103 167 189 10 11 22 26 27 32 17
21 128 189 156 239 70 119 188 401 210 498 2 12 14 59 25 105 11 45 25 115 31
155 6 39 13 83 16 97 9 44 12 413 3 475 -4 33 -11 80 -14 105 -7 55 -13 91
-27 151 -6 26 -12 53 -13 60 -1 8 -8 34 -15 59 -84 310 -260 642 -466 879
-155 179 -410 389 -595 489 -272 148 -510 227 -835 277 -46 7 -451 16 -456 10z
m332 -1089 c76 -12 177 -36 234 -56 79 -27 241 -109 262 -132 9 -10 22 -18 29
-18 7 0 14 -3 16 -7 2 -5 32 -33 68 -63 78 -66 74 -62 131 -130 123 -147 225
-360 253 -530 16 -97 18 -121 20 -197 10 -373 -176 -748 -480 -966 -261 -187
-563 -255 -899 -202 -205 32 -451 161 -602 316 -88 91 -100 105 -154 187 -213
323 -253 719 -109 1079 96 239 291 459 520 585 117 64 291 120 415 134 33 3
61 7 62 8 5 5 199 -2 234 -8z"/>
</g>
</svg>
